<svg xmlns="http://www.w3.org/2000/svg" width="192" height="192" viewBox="0 0 192 192">
  <defs>
    <linearGradient id="blueGradient" x1="0%" y1="0%" x2="100%" y2="100%">
      <stop offset="0%" style="stop-color:#002868;stop-opacity:1" />
      <stop offset="100%" style="stop-color:#1e40af;stop-opacity:1" />
    </linearGradient>
    <linearGradient id="redGradient" x1="0%" y1="0%" x2="100%" y2="100%">
      <stop offset="0%" style="stop-color:#bf0a30;stop-opacity:1" />
      <stop offset="100%" style="stop-color:#dc2626;stop-opacity:1" />
    </linearGradient>
  </defs>
  
  <!-- Background -->
  <rect width="192" height="192" fill="#ffffff" rx="24"/>
  
  <!-- Texas blue background circle -->
  <circle cx="96" cy="96" r="84" fill="url(#blueGradient)" stroke="white" stroke-width="6"/>
  
  <!-- Heart shape (flood relief compassion) -->
  <path d="M96 144C96 144 48 108 48 78C48 64.8 58.8 54 72 54C81 54 88.8 58.8 96 66C103.2 58.8 111 54 120 54C133.2 54 144 64.8 144 78C144 108 96 144 96 144Z" 
        fill="url(#redGradient)" stroke="white" stroke-width="3"/>
  
  <!-- Lone star (Texas symbol) -->
  <path d="M96 36L105 63L132 63L111 81L120 108L96 90L72 108L81 81L60 63L87 63Z" 
        fill="white" stroke="none"/>
  
  <!-- Small highlight for depth -->
  <ellipse cx="78" cy="72" rx="9" ry="12" fill="rgba(255,255,255,0.3)"/>
</svg>