<svg xmlns="http://www.w3.org/2000/svg" xmlns:xlink="http://www.w3.org/1999/xlink" width="500" zoomAndPan="magnify" viewBox="0 0 375 374.999991" height="500" preserveAspectRatio="xMidYMid meet" version="1.2"><defs><clipPath id="965835ac69"><path d="M 8.71875 8.71875 L 366.46875 8.71875 L 366.46875 366.46875 L 8.71875 366.46875 Z M 8.71875 8.71875 "/></clipPath><clipPath id="97c8d4d48e"><path d="M 8.71875 83.71875 L 8.71875 291.28125 C 8.71875 332.703125 42.296875 366.28125 83.71875 366.28125 L 291.28125 366.28125 C 332.703125 366.28125 366.28125 332.703125 366.28125 291.28125 L 366.28125 83.71875 C 366.28125 42.296875 332.703125 8.71875 291.28125 8.71875 L 83.71875 8.71875 C 42.296875 8.71875 8.71875 42.296875 8.71875 83.71875 Z M 8.71875 83.71875 "/></clipPath><clipPath id="89a2e8d4a2"><path d="M 47.253906 45.890625 L 328 45.890625 L 328 313.234375 L 47.253906 313.234375 Z M 47.253906 45.890625 "/></clipPath><clipPath id="7b21b1468c"><path d="M 187.5 45.890625 L 220.609375 148.003906 L 327.746094 148.003906 L 241.070312 211.117188 L 274.175781 313.234375 L 187.5 250.121094 L 100.824219 313.234375 L 133.929688 211.117188 L 47.253906 148.003906 L 154.390625 148.003906 Z M 187.5 45.890625 "/></clipPath><clipPath id="d6460ce4e9"><path d="M 49 206 L 346.640625 206 L 346.640625 251 L 49 251 Z M 49 206 "/></clipPath><clipPath id="0932985f0b"><path d="M 28.640625 227 L 305 227 L 305 275 L 28.640625 275 Z M 28.640625 227 "/></clipPath></defs><g id="2600aee104"><rect x="0" width="375" y="0" height="374.999991" style="fill:#ffffff;fill-opacity:1;stroke:none;"/><rect x="0" width="375" y="0" height="374.999991" style="fill:#1c3775;fill-opacity:1;stroke:none;"/><g clip-rule="nonzero" clip-path="url(#965835ac69)"><g clip-rule="nonzero" clip-path="url(#97c8d4d48e)"><path style=" stroke:none;fill-rule:nonzero;fill:#1c3775;fill-opacity:1;" d="M 366.269531 187.496094 C 366.269531 190.421875 366.199219 193.34375 366.054688 196.265625 C 365.910156 199.191406 365.695312 202.105469 365.410156 205.019531 C 365.125 207.929688 364.765625 210.832031 364.335938 213.726562 C 363.90625 216.621094 363.40625 219.503906 362.835938 222.371094 C 362.265625 225.242188 361.625 228.097656 360.914062 230.933594 C 360.203125 233.773438 359.421875 236.589844 358.574219 239.390625 C 357.722656 242.191406 356.804688 244.96875 355.820312 247.722656 C 354.835938 250.476562 353.78125 253.207031 352.664062 255.910156 C 351.542969 258.613281 350.355469 261.285156 349.105469 263.933594 C 347.855469 266.578125 346.539062 269.1875 345.160156 271.769531 C 343.78125 274.351562 342.339844 276.894531 340.835938 279.40625 C 339.332031 281.914062 337.765625 284.386719 336.140625 286.816406 C 334.515625 289.25 332.832031 291.640625 331.089844 293.992188 C 329.347656 296.34375 327.546875 298.648438 325.691406 300.910156 C 323.835938 303.171875 321.925781 305.386719 319.960938 307.554688 C 317.996094 309.722656 315.976562 311.839844 313.910156 313.910156 C 311.839844 315.976562 309.722656 317.996094 307.554688 319.960938 C 305.386719 321.925781 303.171875 323.835938 300.910156 325.691406 C 298.648438 327.546875 296.339844 329.347656 293.992188 331.089844 C 291.640625 332.832031 289.25 334.515625 286.816406 336.140625 C 284.386719 337.765625 281.914062 339.332031 279.40625 340.835938 C 276.894531 342.339844 274.351562 343.78125 271.769531 345.160156 C 269.1875 346.539062 266.578125 347.855469 263.933594 349.105469 C 261.285156 350.355469 258.613281 351.542969 255.910156 352.664062 C 253.207031 353.78125 250.476562 354.835938 247.722656 355.820312 C 244.96875 356.804688 242.191406 357.722656 239.390625 358.574219 C 236.589844 359.421875 233.773438 360.203125 230.933594 360.914062 C 228.097656 361.625 225.242188 362.265625 222.371094 362.835938 C 219.503906 363.40625 216.621094 363.90625 213.726562 364.335938 C 210.832031 364.765625 207.929688 365.125 205.019531 365.410156 C 202.105469 365.695312 199.191406 365.910156 196.265625 366.054688 C 193.34375 366.199219 190.421875 366.269531 187.496094 366.269531 C 184.570312 366.269531 181.644531 366.199219 178.722656 366.054688 C 175.800781 365.910156 172.882812 365.695312 169.972656 365.410156 C 167.0625 365.125 164.15625 364.765625 161.261719 364.335938 C 158.371094 363.90625 155.488281 363.40625 152.617188 362.835938 C 149.75 362.265625 146.894531 361.625 144.054688 360.914062 C 141.21875 360.203125 138.398438 359.421875 135.601562 358.574219 C 132.800781 357.722656 130.023438 356.804688 127.269531 355.820312 C 124.511719 354.835938 121.785156 353.78125 119.082031 352.664062 C 116.378906 351.542969 113.703125 350.355469 111.058594 349.105469 C 108.414062 347.855469 105.800781 346.539062 103.222656 345.160156 C 100.640625 343.78125 98.097656 342.339844 95.585938 340.835938 C 93.078125 339.332031 90.605469 337.765625 88.171875 336.140625 C 85.742188 334.515625 83.347656 332.832031 81 331.089844 C 78.648438 329.347656 76.34375 327.546875 74.082031 325.691406 C 71.820312 323.835938 69.605469 321.925781 67.4375 319.960938 C 65.269531 317.996094 63.152344 315.976562 61.082031 313.910156 C 59.011719 311.839844 56.996094 309.722656 55.03125 307.554688 C 53.066406 305.386719 51.15625 303.171875 49.300781 300.910156 C 47.445312 298.648438 45.644531 296.34375 43.902344 293.992188 C 42.160156 291.640625 40.476562 289.25 38.847656 286.816406 C 37.222656 284.386719 35.660156 281.914062 34.15625 279.40625 C 32.652344 276.894531 31.207031 274.351562 29.828125 271.769531 C 28.449219 269.1875 27.136719 266.578125 25.882812 263.933594 C 24.632812 261.285156 23.449219 258.613281 22.328125 255.910156 C 21.207031 253.207031 20.15625 250.476562 19.171875 247.722656 C 18.183594 244.96875 17.265625 242.191406 16.417969 239.390625 C 15.570312 236.589844 14.789062 233.773438 14.078125 230.933594 C 13.367188 228.097656 12.726562 225.242188 12.15625 222.371094 C 11.585938 219.503906 11.085938 216.621094 10.65625 213.726562 C 10.226562 210.832031 9.867188 207.929688 9.582031 205.019531 C 9.292969 202.105469 9.078125 199.191406 8.933594 196.265625 C 8.792969 193.34375 8.71875 190.421875 8.71875 187.496094 C 8.71875 184.570312 8.792969 181.644531 8.933594 178.722656 C 9.078125 175.800781 9.292969 172.882812 9.582031 169.972656 C 9.867188 167.0625 10.226562 164.15625 10.65625 161.261719 C 11.085938 158.371094 11.585938 155.488281 12.15625 152.617188 C 12.726562 149.75 13.367188 146.894531 14.078125 144.054688 C 14.789062 141.21875 15.570312 138.398438 16.417969 135.601562 C 17.265625 132.800781 18.183594 130.023438 19.171875 127.269531 C 20.15625 124.511719 21.207031 121.785156 22.328125 119.082031 C 23.449219 116.378906 24.632812 113.703125 25.882812 111.058594 C 27.136719 108.414062 28.449219 105.800781 29.828125 103.222656 C 31.207031 100.640625 32.652344 98.097656 34.15625 95.585938 C 35.660156 93.078125 37.222656 90.605469 38.847656 88.171875 C 40.476562 85.742188 42.160156 83.347656 43.902344 81 C 45.644531 78.648438 47.445312 76.34375 49.300781 74.082031 C 51.15625 71.820312 53.066406 69.605469 55.03125 67.4375 C 56.996094 65.269531 59.011719 63.152344 61.082031 61.082031 C 63.152344 59.011719 65.269531 56.996094 67.4375 55.03125 C 69.605469 53.066406 71.820312 51.15625 74.082031 49.300781 C 76.34375 47.445312 78.648438 45.644531 81 43.902344 C 83.347656 42.160156 85.742188 40.476562 88.171875 38.847656 C 90.605469 37.222656 93.078125 35.660156 95.585938 34.15625 C 98.097656 32.652344 100.640625 31.207031 103.222656 29.828125 C 105.800781 28.449219 108.414062 27.136719 111.058594 25.882812 C 113.703125 24.632812 116.378906 23.449219 119.082031 22.328125 C 121.785156 21.207031 124.511719 20.15625 127.269531 19.171875 C 130.023438 18.183594 132.800781 17.265625 135.601562 16.417969 C 138.398438 15.570312 141.21875 14.789062 144.054688 14.078125 C 146.894531 13.367188 149.75 12.726562 152.617188 12.15625 C 155.488281 11.585938 158.371094 11.085938 161.261719 10.65625 C 164.15625 10.226562 167.0625 9.867188 169.972656 9.582031 C 172.882812 9.292969 175.800781 9.078125 178.722656 8.933594 C 181.644531 8.792969 184.570312 8.71875 187.496094 8.71875 C 190.421875 8.71875 193.34375 8.792969 196.265625 8.933594 C 199.191406 9.078125 202.105469 9.292969 205.019531 9.582031 C 207.929688 9.867188 210.832031 10.226562 213.726562 10.65625 C 216.621094 11.085938 219.503906 11.585938 222.371094 12.15625 C 225.242188 12.726562 228.097656 13.367188 230.933594 14.078125 C 233.773438 14.789062 236.589844 15.570312 239.390625 16.417969 C 242.191406 17.265625 244.96875 18.183594 247.722656 19.171875 C 250.476562 20.15625 253.207031 21.207031 255.910156 22.328125 C 258.613281 23.449219 261.285156 24.632812 263.933594 25.882812 C 266.578125 27.136719 269.1875 28.449219 271.769531 29.828125 C 274.351562 31.207031 276.894531 32.652344 279.40625 34.15625 C 281.914062 35.660156 284.386719 37.222656 286.816406 38.847656 C 289.25 40.476562 291.640625 42.160156 293.992188 43.902344 C 296.339844 45.644531 298.648438 47.445312 300.910156 49.300781 C 303.171875 51.15625 305.386719 53.066406 307.554688 55.03125 C 309.722656 56.996094 311.839844 59.011719 313.910156 61.082031 C 315.976562 63.152344 317.996094 65.269531 319.960938 67.4375 C 321.925781 69.605469 323.835938 71.820312 325.691406 74.082031 C 327.546875 76.34375 329.347656 78.648438 331.089844 81 C 332.832031 83.347656 334.515625 85.742188 336.140625 88.171875 C 337.765625 90.605469 339.332031 93.078125 340.835938 95.585938 C 342.339844 98.097656 343.78125 100.640625 345.160156 103.222656 C 346.539062 105.800781 347.855469 108.414062 349.105469 111.058594 C 350.355469 113.703125 351.542969 116.378906 352.664062 119.082031 C 353.78125 121.785156 354.835938 124.511719 355.820312 127.269531 C 356.804688 130.023438 357.722656 132.800781 358.574219 135.601562 C 359.421875 138.398438 360.203125 141.21875 360.914062 144.054688 C 361.625 146.894531 362.265625 149.75 362.835938 152.617188 C 363.40625 155.488281 363.90625 158.371094 364.335938 161.261719 C 364.765625 164.15625 365.125 167.0625 365.410156 169.972656 C 365.695312 172.882812 365.910156 175.800781 366.054688 178.722656 C 366.199219 181.644531 366.269531 184.570312 366.269531 187.496094 Z M 366.269531 187.496094 "/></g></g><g clip-rule="nonzero" clip-path="url(#89a2e8d4a2)"><g clip-rule="nonzero" clip-path="url(#7b21b1468c)"><path style=" stroke:none;fill-rule:nonzero;fill:#ffffff;fill-opacity:1;" d="M 47.253906 45.890625 L 328.175781 45.890625 L 328.175781 313.234375 L 47.253906 313.234375 Z M 47.253906 45.890625 "/></g></g><g clip-rule="nonzero" clip-path="url(#d6460ce4e9)"><path style=" stroke:none;fill-rule:nonzero;fill:#c8102e;fill-opacity:1;" d="M 49.921875 228.269531 C 165.136719 187.789062 267.207031 305.316406 346.511719 216.980469 C 244.332031 263.140625 157.335938 165.886719 49.921875 228.269531 "/></g><g clip-rule="nonzero" clip-path="url(#0932985f0b)"><path style=" stroke:none;fill-rule:nonzero;fill:#54afe6;fill-opacity:1;" d="M 28.796875 240.398438 C 132.558594 211.445312 231.882812 312.894531 304.933594 256.769531 C 210.808594 286.101562 142 195.15625 28.796875 240.398438 "/></g></g></svg>